<?xml version="1.0"?>
<svg xmlns="http://www.w3.org/2000/svg" id="Layer_1" data-name="Layer 1" viewBox="0 0 512 512" width="512" height="512"><title>medical treatment</title><path d="M421.25,361v28a2.006,2.006,0,0,1-2,2h-36a2,2,0,0,0-2,2v37a2.006,2.006,0,0,1-2,2h-28a2,2,0,0,1-2-2V393a2.006,2.006,0,0,0-2-2h-37a2,2,0,0,1-2-2V361a2,2,0,0,1,2-2h37a2.006,2.006,0,0,0,2-2V321a2,2,0,0,1,2-2h28a2.006,2.006,0,0,1,2,2v36a2,2,0,0,0,2,2h36A2.006,2.006,0,0,1,421.25,361Z" style="fill:#f8ec7d"/><path d="M366.83,260.16a112.934,112.934,0,1,1-95.51,52.65A112.919,112.919,0,0,1,366.83,260.16ZM421.25,389V361a2.006,2.006,0,0,0-2-2h-36a2,2,0,0,1-2-2V321a2.006,2.006,0,0,0-2-2h-28a2,2,0,0,0-2,2v36a2.006,2.006,0,0,1-2,2h-37a2,2,0,0,0-2,2v28a2,2,0,0,0,2,2h37a2.006,2.006,0,0,1,2,2v37a2,2,0,0,0,2,2h28a2.006,2.006,0,0,0,2-2V393a2,2,0,0,1,2-2h36A2.006,2.006,0,0,0,421.25,389Z" style="fill:#6fe3ff"/><path d="M276.87,52.93c21.54,21.79,18.18,46.75,18.18,66.29,0,5.66-2.93,48.29-6.21,52.62l-.61.06c-.78-8-6.11-57.07-21.02-71.97l-.98-1.98c-14.83,32.63-32.85,27.2-54.38,25.71-12.86-.9,12.85,22.73,12.85,22.73-55.36,7.91-45.18-45.47-59.32-45.47-37.6,0-33.95,64.9-33.75,68.14l-2.13.22c-3.91-9.74-11.21-40.59-11.35-46.4-1.03-40.91,13.22-54.58,24-66.75C176.17,17.74,239.7,15.33,276.87,52.93Z" style="fill:#af593c"/><path d="M366.83,486H41.16c-10.09,0-14.91-13.49-14.91-23.57V399.69c0-60.04,74-74.91,122.36-89.04l.14.47c0,17,20.73,52.37,61.05,52.37,22.66,0,38.96-10.65,48.89-22.99A112.984,112.984,0,0,0,366.83,486Z" style="fill:#f8ec7d"/><path d="M257.61,308.49c4.34,1.48,8.94,2.91,13.71,4.32a112.1,112.1,0,0,0-12.63,27.69c-9.93,12.34-26.23,22.99-48.89,22.99-40.32,0-61.05-35.37-61.05-52.37l-.14-.47c3.69-1.08,7.23-2.15,10.57-3.24l12.32-25.32.26-1.39c9.44,5.97,21.81,9.92,38.04,9.92,16.26,0,28.64-3.86,38.08-9.69a.01.01,0,0,0,.01-.01Z" style="fill:#d68565"/><path d="M131.63,169.06c-.2-3.24-3.85-68.14,33.75-68.14,14.14,0,3.96,53.38,59.32,45.47,0,0-25.71-23.63-12.85-22.73,21.53,1.49,39.55,6.92,54.38-25.71l.98,1.98c14.91,14.9,20.24,63.97,21.02,71.97l.61-.06c10.79-12.29,25.23-1.37,21.24,15.6-5.03,21.26-18.7,38.1-31.92,37.85-.04,0-.85,37.44-30.27,55.63a.01.01,0,0,1-.01.01c-9.44,5.83-21.82,9.69-38.08,9.69-16.23,0-28.6-3.95-38.04-9.92-28.94-18.27-30.26-55.41-30.31-55.41-13.22.25-26.9-16.59-31.92-37.85-4-16.97,10.45-26.98,21.24-15.61a12.021,12.021,0,0,1-1.27-2.55Z" style="fill:#e48e66"/></svg>
